<?xml version="1.0" encoding="UTF-8"?>
<svg width="20px" height="20px" viewBox="0 0 20 20" version="1.1" xmlns="http://www.w3.org/2000/svg" xmlns:xlink="http://www.w3.org/1999/xlink">
    <!-- Generator: Sketch 52.2 (67145) - http://www.bohemiancoding.com/sketch -->
    <title>Content / Personas / Status / Available / 20px</title>
    <desc>Created with Sketch.</desc>
    <g id="Content-/-Personas-/-Status-/-Available-/-20px" stroke="none" stroke-width="1" fill="none" fill-rule="evenodd">
        <path d="M10,-1 C11.0078744,-1 11.9835789,-0.869069061 12.9246523,-0.606861597 C13.8609627,-0.34598122 14.737571,0.0250983735 15.5522911,0.506034485 C16.3637585,0.985050465 17.1043506,1.55927766 17.7725365,2.22746353 C18.4407223,2.8956494 19.0149495,3.63624149 19.4939655,4.44770886 C19.9749016,5.26242898 20.3459812,6.1390373 20.6068616,7.07534769 C20.8690691,8.01642106 21,8.99212559 21,10 C21,11.0078744 20.8690691,11.9835789 20.6068616,12.9246523 C20.3459812,13.8609627 19.9749016,14.737571 19.4939655,15.5522911 C19.0149495,16.3637585 18.4407223,17.1043506 17.7725365,17.7725365 C17.1043506,18.4407223 16.3637585,19.0149495 15.5522911,19.4939655 C14.737571,19.9749016 13.8609627,20.3459812 12.9246523,20.6068616 C11.9835789,20.8690691 11.0078744,21 10,21 C8.99212559,21 8.01642106,20.8690691 7.07534769,20.6068616 C6.1390373,20.3459812 5.26242898,19.9749016 4.44770886,19.4939655 C3.63624149,19.0149495 2.8956494,18.4407223 2.22746353,17.7725365 C1.55927766,17.1043506 0.985050465,16.3637585 0.506034485,15.5522911 C0.0250983735,14.737571 -0.34598122,13.8609627 -0.606861597,12.9246523 C-0.869069061,11.9835789 -1,11.0078744 -1,10 C-1,8.99212559 -0.869069061,8.01642106 -0.606861597,7.07534769 C-0.34598122,6.1390373 0.0250983735,5.26242898 0.506034485,4.44770886 C0.985050465,3.63624149 1.55927766,2.8956494 2.22746353,2.22746353 C2.8956494,1.55927766 3.63624149,0.985050465 4.44770886,0.506034485 C5.26242898,0.0250983735 6.1390373,-0.34598122 7.07534769,-0.606861597 C8.01642106,-0.869069061 8.99212559,-1 10,-1 Z M13.0010086,7.86632995 L8.85742188,12.0099167 L6.99797134,10.1504662 C6.97687672,10.1293715 6.98045684,10.1308594 6.953125,10.1308594 C6.94388154,10.1308594 6.94022312,10.1315998 6.93410939,10.1341981 C6.92119677,10.139686 6.91469003,10.1440548 6.90827866,10.1504662 C6.8991951,10.1595497 6.89376887,10.1675063 6.88841178,10.179776 C6.88851109,10.1795237 6.88867188,10.1794342 6.88867188,10.1855469 C6.88867188,10.1889058 6.88973247,10.194084 6.8954218,10.2078053 C6.90107859,10.2214481 6.90449593,10.2266105 6.90827866,10.2303932 L8.81257553,12.1346901 C8.81635826,12.1384728 8.82152063,12.1418902 8.83516346,12.1475469 C8.84888479,12.1532363 8.85406299,12.1542969 8.85742188,12.1542969 C8.86666533,12.1542969 8.87032375,12.1535565 8.87643748,12.1509581 C8.8893501,12.1454703 8.89585684,12.1411015 8.90226822,12.1346901 L13.0917213,7.94523697 C13.0932358,7.94372249 13.0929764,7.94411733 13.0949608,7.9391562 C13.1001008,7.92630612 13.1015625,7.91881511 13.1015625,7.91015625 C13.1015625,7.90091279 13.1008221,7.89725437 13.0982238,7.89114064 C13.0923176,7.87724385 13.0891736,7.87252776 13.0868385,7.87019272 C13.0845035,7.86785768 13.0797874,7.86471362 13.0658906,7.85880748 C13.0597769,7.85620914 13.0561185,7.85546875 13.046875,7.85546875 C13.0360638,7.85546875 13.0240944,7.85777611 13.005144,7.86517137 C13.0014777,7.86660214 13.0007677,7.86670932 13.0010086,7.86632995 Z M6.88841178,10.179776 C6.88839974,10.1798036 6.8883877,10.1798312 6.88837565,10.1798589 C6.88838606,10.179835 6.88839794,10.1798009 6.88841081,10.1797693 Z" id="Shape" stroke="#FFFFFF" stroke-width="2" fill="#7FBA00"></path>
    </g>
</svg>